:SAMPLES-PER-SECOND 30
:FULLY-SPECIFIED
:DEGREES
394
root  -45.0864 37.6024 -13.9907 3.5625 -23.7693 -1.02248
RightUpLeg  -35.1101 -28.6559 -4.55481
RightLeg  28.3573 1.69121 0.7493
RightFoot  6.47666 -0.262682 2.00424
RightToes  0.00048216 0.542163 -0.142577
Spine  43.9657 -5.06274 11.9984
Spine1  6.42448 0.166998 -3.81503
HEad  -6.2189 -10.8042 0.960361
LeftShoulder1  8.91067 -16.5929 -38.1676
LeftArm  -5.92136 -16.51 -37.3538
LeftForeArm  4.37787 -43.1309 -10.205
LeftHand  -0.25398 0.0180481 5.50724
RightShoulder  4.84583 10.9138 27.5827
RightArm  6.30432 43.6671 35.2263
RightForeArm  -1.2595 35.4145 8.06163
RightHand  0.27534 4.06488 3.0352
LeftUpLeg  -37.0446 -4.13109 8.39206
LeftLeg  60.9347 5.61504 11.3796
LeftFoot  -0.449407 -0.240036 2.63735
LeftToes  1.06248e-005 4.65856e-005 -8.18499e-006
395
root  -46.2201 38.0093 -14.3811 5.85715 -22.8204 -0.305542
RightUpLeg  -37.1057 -29.1027 -1.84768
RightLeg  26.9511 1.05253 0.347669
RightFoot  6.39076 -0.0993713 0.923964
RightToes  0.00048216 0.542163 -0.142577
Spine  45.836 -4.7532 11.0614
Spine1  6.93907 0.309003 -3.7412
HEad  -9.9593 -11.495 1.74336
LeftShoulder1  8.95058 -17.3628 -36.7641
LeftArm  -6.47148 -21.3231 -38.836
LeftForeArm  2.79298 -40.0246 -9.23016
LeftHand  -0.25398 0.0180481 5.50724
RightShoulder  4.46654 10.2831 26.3314
RightArm  4.1435 47.1252 33.674
RightForeArm  -0.980446 34.1478 7.68711
RightHand  0.350158 4.9665 3.5365
LeftUpLeg  -39.8815 -0.183466 4.87153
LeftLeg  56.9893 5.69165 9.91668
LeftFoot  -2.69415 -0.16119 2.28359
LeftToes  1.06248e-005 4.65856e-005 -8.18499e-006
396
root  -47.2355 38.4689 -14.6682 8.57396 -21.4138 0.7117
RightUpLeg  -39.3494 -30.1422 0.646165
RightLeg  24.6672 0.723746 0.12774
RightFoot  6.90169 -0.00109347 0.298382
RightToes  0.00048216 0.542163 -0.142577
Spine  47.4059 -4.84469 10.078
Spine1  6.90671 -0.187497 -3.20697
HEad  -12.7237 -11.1661 1.41969
LeftShoulder1  8.80367 -17.8517 -35.1255
LeftArm  -6.94773 -25.822 -40.0887
LeftForeArm  1.30564 -36.9481 -8.35441
LeftHand  -0.25398 0.0180481 5.50724
RightShoulder  4.13342 9.88929 24.7343
RightArm  1.57879 50.274 32.5017
RightForeArm  -0.635031 32.8539 7.31374
RightHand  0.461084 5.39489 4.55692
LeftUpLeg  -42.0194 3.04973 -0.0908673
LeftLeg  50.0734 6.04275 8.09221
LeftFoot  -5.05156 0.0152773 0.286969
LeftToes  1.06248e-005 4.65856e-005 -8.18499e-006
397
root  -48.144 38.8798 -14.8796 11.2937 -19.813 1.46516
RightUpLeg  -41.7074 -32.0352 3.76063
RightLeg  22.5162 1.12167 0.300796
RightFoot  6.53061 0.149563 -0.667284
RightToes  0.00048216 0.542163 -0.142577
Spine  49.1972 -5.0454 9.39879
Spine1  6.36233 -0.910409 -1.7845
HEad  -14.6006 -10.5201 0.287809
LeftShoulder1  8.77229 -18.088 -34.5376
LeftArm  -7.17443 -29.9411 -40.7403
LeftForeArm  0.428813 -34.3059 -7.64504
LeftHand  -0.25398 0.0180481 5.50724
RightShoulder  3.80361 9.69095 22.5863
RightArm  -1.69668 52.7716 31.0021
RightForeArm  0.196777 31.9252 7.02125
RightHand  0.579873 5.47577 5.77739
LeftUpLeg  -43.08 6.98649 -5.9829
LeftLeg  41.3285 7.89486 7.72098
LeftFoot  -5.84957 0.113402 -1.57013
LeftToes  1.06248e-005 4.65856e-005 -8.18499e-006
398
root  -48.9598 39.176 -15.0263 14.0176 -18.9043 1.69525
RightUpLeg  -43.8465 -33.0093 7.02443
RightLeg  20.363 1.46061 0.732205
RightFoot  6.40317 0.275747 -1.48121
RightToes  0.00048216 0.542163 -0.142577
Spine  50.7141 -4.65903 9.13342
Spine1  6.34765 -0.711141 -0.246481
HEad  -16.4545 -11.0443 -0.446554
LeftShoulder1  9.23313 -18.6992 -35.4655
LeftArm  -6.49022 -34.2167 -41.0851
LeftForeArm  -0.0658048 -31.7251 -6.97977
LeftHand  -0.25398 0.0180481 5.50724
RightShoulder  3.37274 9.14877 20.2684
RightArm  -5.91851 54.4824 27.925
RightForeArm  1.24932 31.4352 6.83594
RightHand  0.667825 5.53855 6.66632
LeftUpLeg  -43.3361 13.2529 -13.0957
LeftLeg  31.3654 9.40507 6.59916
LeftFoot  -5.33521 0.0934902 -1.20196
LeftToes  1.06248e-005 4.65856e-005 -8.18499e-006
399
root  -49.6498 39.3224 -15.1002 16.685 -18.9961 1.17993
RightUpLeg  -45.5336 -31.9955 9.63205
RightLeg  18.7431 0.961614 1.12276
RightFoot  6.80382 0.379292 -2.08122
RightToes  0.00048216 0.542163 -0.142577
Spine  51.6039 -3.71251 9.28739
Spine1  7.42109 0.515824 0.963195
HEad  -18.7658 -12.199 -0.957872
LeftShoulder1  10.0901 -19.8249 -37.075
LeftArm  -5.28113 -38.5799 -41.5129
LeftForeArm  -0.471607 -29.3912 -6.40814
LeftHand  -0.25398 0.0180481 5.50724
RightShoulder  2.81443 8.08394 17.7059
RightArm  -10.4344 55.8195 23.8653
RightForeArm  1.83169 30.8794 6.66207
RightHand  0.735766 5.78308 7.20363
LeftUpLeg  -43.5641 19.8239 -19.7863
LeftLeg  22.0082 8.89784 3.96852
LeftFoot  -3.51812 -0.231667 3.51961
LeftToes  1.06248e-005 4.65856e-005 -8.18499e-006
